<?xml version="1.0" encoding="UTF-8"?>
<svg width="115px" height="27px" viewBox="0 0 115 27" version="1.1" xmlns="http://www.w3.org/2000/svg" xmlns:xlink="http://www.w3.org/1999/xlink">
    <!-- Generator: sketchtool 64 (101010) - https://sketch.com -->
    <title>8E82FBF4-77D4-45EB-B780-8AEB2552025B</title>
    <desc>Created with sketchtool.</desc>
    <g id="WEBSITE-REFRESH" stroke="none" stroke-width="1" fill="none" fill-rule="evenodd">
        <g id="01.0_Homepage" transform="translate(-75.000000, -51.000000)" fill="#000000" fill-rule="nonzero">
            <g id="Site-header-1440px" transform="translate(0.000000, 32.000000)">
                <g id="showpologo_new" transform="translate(75.000000, 19.000000)">
                    <path d="M13.9960581,10.5334149 C14.6476965,11.5867564 14.9593496,12.6970352 14.9593496,13.9211888 C14.9593496,15.6293102 14.3360434,17.1381507 13.0610988,18.5046477 C12.3527963,19.2733023 11.446169,19.8426761 10.341217,20.2127691 C9.23626509,20.582862 8.07464893,20.7821429 6.79970436,20.7821429 C5.89307711,20.7821429 4.81645726,20.6397994 3.56984479,20.3835812 C2.35156442,20.0988943 0.113328406,19.2733023 0.113328406,19.2733023 L0.113328406,12.0991928 L1.13328406,12.0991928 L1.21828036,12.4692857 C1.64326189,14.4620939 2.32323232,16.0848092 3.31485588,17.3943689 C4.41980783,18.8747407 5.7230845,19.6149266 7.22468588,19.6149266 C8.01798473,19.6149266 8.69795516,19.301771 9.23626509,18.7039286 C9.71791082,18.1914922 9.97289973,17.6505871 9.97289973,17.1381507 C9.97289973,16.1702153 9.54791821,15.3446233 8.72628726,14.6898434 C8.27297364,14.3197505 7.36634639,13.8642515 6.03473762,13.2948777 L5.04311407,12.8678474 C3.45651638,12.1845988 2.26656812,11.4444129 1.50160138,10.6188209 C0.509977827,9.59394814 0,8.36979452 0,6.97482877 C0,5.03895793 0.708302538,3.38777397 2.12490761,2.02127691 C3.54151269,0.683248532 5.29810298,0 7.36634639,0 C7.93298842,0 8.55629465,0.0569373777 9.26459719,0.170812133 C10.9078591,0.427030333 13.0327667,1.62271526 13.0327667,1.62271526 L13.0327667,7.28798434 C13.0327667,7.28798434 12.012811,7.28798434 12.012811,7.28798434 C12.0411431,7.28798434 11.8994826,6.29158023 11.8711505,6.17770548 C11.7011579,5.40905088 11.3611727,4.64039628 10.9928554,3.98561644 C10.8511949,3.72939824 10.6812023,3.47318004 10.5112097,3.21696184 C10.0295639,2.50524462 9.54791821,2.02127691 9.06627248,1.70812133 C7.67799951,0.825591977 5.581424,0.967935421 4.81645726,2.59065068 C4.24981523,3.78633562 4.67479675,5.23823875 5.6947524,6.06383072 C6.37472284,6.6332045 7.36634639,7.08870352 8.66962306,7.43032779 L9.15126879,7.57267123 C10.1995565,7.85735812 11.162848,8.28438845 12.0694752,8.82529354 C12.9477704,9.30926125 13.5994087,9.90710372 13.9960581,10.5334149 Z" id="Path"></path>
                    <path d="M34.5934959,19.8413874 L34.5934959,20.7821429 L27.2183508,20.7821429 C27.2183508,20.7821429 27.2183508,18.6725701 27.2183508,18.2164462 C27.2183508,17.9883843 27.2183508,11.8877278 27.2183508,11.8877278 L27.2183508,11.1180188 C27.2183508,10.4623408 27.1312427,9.94920145 26.9860627,9.57860082 C26.7828107,9.03695375 26.4053426,8.75187635 25.8536585,8.75187635 C25.2148664,8.75187635 24.7212544,9.06546149 24.4308943,9.69263179 C24.1405343,10.3198021 23.9663182,11.0324956 23.9663182,11.8307123 L23.9663182,16.9050901 C23.9663182,17.7318146 23.8792102,18.2734617 24.0243902,18.7295855 C24.1405343,19.1572016 24.3437863,19.4137713 24.6341463,19.5848178 C25.0406504,19.8413874 25.3310105,19.8413874 25.3310105,19.8413874 L25.3310105,20.7821429 L16.7944251,20.7821429 L16.7944251,19.8413874 C17.1138211,19.8413874 17.3170732,19.8128797 17.5783972,19.670341 C17.8397213,19.5278023 18.1591173,19.2427249 18.2462253,18.9291397 C18.3623693,18.6155546 18.3623693,18.4445081 18.3623693,17.9883843 L18.3623693,7.18395062 C18.3623693,6.81334999 18.3042973,5.98662551 18.3042973,5.98662551 C18.3042973,4.61825397 17.2590012,3.50645209 15.8943089,3.39242112 C23.7921022,0 18.5075494,2.28061924 23.7921022,0 L23.7921022,8.60933764 L24.0824623,8.2957525 C25.3600465,6.92738095 26.7828107,6.24319518 28.3217189,6.24319518 L28.699187,6.24319518 C30.5284553,6.41424162 31.7479675,7.04141191 32.2706156,8.06769057 C32.6190476,8.72336861 32.7642276,9.92069371 32.7642276,11.7166814 L32.7642276,16.9050901 C32.7642276,18.5585391 32.9094077,19.0146629 33.3449477,19.4422791 C33.5191638,19.6133255 33.8966318,19.8413874 34.3612079,19.8413874 L34.5934959,19.8413874 Z" id="Path"></path>
                    <path d="M72.9268293,7.12395403 L72.6691373,7.12395403 C72.4973426,7.12395403 72.3541804,7.12395403 72.2110182,7.12395403 C72.067856,7.12395403 71.8960614,7.21131985 71.6670018,7.38605147 C71.5524721,7.47341729 71.4665747,7.5607831 71.4093099,7.64814891 C71.0370881,8.08497798 70.6648664,8.72566061 70.2926446,9.51195293 L65.1388051,20.7821429 L60.9012037,13.239561 L56.7781321,20.7821429 C56.7208672,20.6656551 56.6636023,20.5200454 56.6063374,20.4035577 C56.4345428,20.0540944 56.2627481,19.7337531 56.1195859,19.3842898 C55.861894,18.8892169 55.6328344,18.394144 55.3751424,17.899071 C55.088818,17.3166323 54.8024936,16.7050716 54.4875367,16.1226328 C54.1725799,15.4819502 53.857623,14.8412675 53.5426662,14.2297069 C53.2277093,13.6181462 52.9413849,13.0065855 52.626428,12.3659028 C52.3687361,11.812586 52.0824116,11.2883911 51.8247197,10.7350743 C51.5956601,10.2691233 51.3666006,9.83229425 51.1661735,9.36634324 C50.9657464,8.92951418 50.7653193,8.49268511 50.5076273,8.08497798 C50.3072002,7.7937586 50.0495083,7.50253922 49.7631839,7.3278076 C49.448227,7.15307597 49.1046377,7.09483209 48.7610484,7.09483209 L48.6178862,7.09483209 L48.6178862,6.16293009 L58.3242839,6.16293009 L58.3242839,7.09483209 C57.9806946,7.09483209 57.6371053,7.09483209 57.293516,7.24044178 C57.1217214,7.29868566 56.9785592,7.41517341 56.8640294,7.58990504 C56.7781321,7.73551473 56.7494997,7.88112442 56.7494997,8.05585604 C56.7494997,8.20146573 56.7781321,8.37619736 56.835397,8.52180705 C57.1789863,9.36634324 57.3507809,9.7158065 57.6657378,10.2691233 C57.9234298,10.7350743 58.1811217,11.2301473 58.4388137,11.6960983 C58.6392408,12.0746835 58.8396679,12.4532686 59.040095,12.8027319 C59.0687274,12.8609758 59.0973599,12.9192197 59.1259923,12.9774635 L63.0486368,5.66785714 L67.1717085,13.3560487 C67.3435031,12.9483416 67.5152978,12.5697564 67.7157249,12.1620493 C68.0306817,11.4922447 68.3170061,10.8224401 68.631963,10.1526356 C68.9182874,9.51195293 69.2618767,8.8712703 69.2046118,8.11409992 C69.1759794,7.88112442 69.1187145,7.64814891 68.9755523,7.47341729 C68.6892279,7.09483209 68.2024764,7.09483209 67.7729897,7.09483209 L67.5725627,7.09483209 L67.5725627,6.16293009 L72.9268293,6.16293009 L72.9268293,7.12395403 Z" id="Path"></path>
                    <path d="M112.169623,20.7821429 C111.302661,20.7821429 110.614191,20.497456 110.129712,19.9280822 C109.645233,19.3587084 109.390244,18.7116928 109.390244,17.9611546 C109.390244,17.1847358 109.619734,16.5118395 110.104213,15.9424658 C110.588692,15.373092 111.277162,15.1142857 112.169623,15.1142857 C113.062084,15.1142857 113.750554,15.3989726 114.286031,15.994227 C114.745011,16.5118395 115,17.1847358 115,17.9611546 C115,18.7116928 114.745011,19.384589 114.260532,19.9280822 C113.750554,20.497456 113.062084,20.7821429 112.169623,20.7821429 Z" id="Path"></path>
                    <path d="M89.1527415,8.65346076 C88.0425475,7.13138833 86.5622889,6.37035211 84.7404321,6.37035211 C84.0003027,6.37035211 83.3740395,6.48743461 82.8616422,6.7215996 C82.3207785,6.95576459 81.7799147,7.3362827 81.2105845,7.92169517 L81.0113189,8.12658954 L81.0113189,5.66785714 C80.8974528,5.72639839 73.2968939,9.09252012 72.9268293,9.23887324 C72.9268293,9.23887324 72.9268293,9.23887324 72.9268293,9.23887324 C74.3216884,9.26814386 75.4318824,10.3804276 75.4318824,11.8146881 C75.4318824,11.9025 75.4603489,12.0488531 75.4318824,12.136665 C75.4318824,12.2537475 75.4318824,12.4001006 75.4318824,12.5464537 C75.4318824,12.5464537 75.4603489,23.6985614 75.4603489,23.8741851 C75.4603489,24.3132445 75.3464829,24.7230332 75.0333512,25.0450101 C74.8056191,25.2791751 74.4924875,25.4547988 74.1793558,25.4840694 C73.9516237,25.51334 73.7808247,25.51334 73.4392265,25.51334 L73.4392265,26.45 L83.0609078,26.45 C83.0609078,26.1572938 83.0609078,25.8353169 83.0609078,25.5426107 C82.4915776,25.5426107 81.9222473,25.5426107 81.5521826,25.1328219 C81.2105845,24.7815744 81.0682519,24.2254326 81.0682519,23.727832 C81.0397854,22.7326308 81.0682519,21.7374296 81.0682519,20.7422284 L81.5806491,20.9763934 C82.0645799,21.1520171 82.7193097,21.2690996 83.516372,21.2690996 L83.8579702,21.2690996 C83.9718362,21.2690996 84.0857023,21.2690996 84.1995683,21.239829 C86.4199563,21.0349346 88.0994806,20.2446278 89.2096746,18.8396378 C90.2060025,17.6102716 90.6899332,15.9711167 90.6899332,13.922173 C90.7183997,11.8439588 90.2060025,10.0584507 89.1527415,8.65346076 Z M85.3097623,13.7758199 C85.3097623,16.3809054 84.9966307,18.4005785 84.9681642,18.4298491 C84.9396977,18.4883903 84.9112311,18.5762022 84.8542981,18.6347435 C84.5980995,19.1030734 84.1141688,19.3665091 83.6017716,19.3957797 C83.5448385,19.3957797 83.4879055,19.3957797 83.4309725,19.3957797 L83.4309725,19.3957797 C82.8901087,19.3372384 82.4346445,19.0152616 82.2069124,18.5762022 C82.2069124,18.5469316 82.1784459,18.517661 82.1784459,18.517661 C82.1499794,18.4883903 82.1499794,18.4298491 82.1215129,18.4005785 C82.0645799,18.2542254 82.0361134,18.0786016 82.0076468,17.8444366 C82.0076468,17.8444366 81.7799147,15.795493 81.8083813,13.7465493 C81.8368478,11.6976056 82.0076468,9.6779326 82.0076468,9.6779326 C82.0076468,9.09252012 82.3207785,8.59491952 82.7762427,8.30221328 C83.0039748,8.18513078 83.2317069,8.09731891 83.516372,8.06804829 L83.516372,8.06804829 C83.7156376,8.06804829 83.9149032,8.09731891 84.1141688,8.15586016 C84.1141688,8.15586016 84.1141688,8.15586016 84.1141688,8.15586016 C84.5411665,8.30221328 84.8827646,8.65346076 85.0250972,9.09252012 C85.0250972,9.09252012 85.0250972,9.09252012 85.0250972,9.09252012 C85.0820302,9.38522636 85.3097623,11.1707344 85.3097623,13.7758199 Z" id="Shape"></path>
                    <path d="M105.201485,7.71273109 C103.731,6.34948179 102.062566,5.66785714 100.139625,5.66785714 C98.1035702,5.66785714 96.3220219,6.37911765 94.8232591,7.7720028 C93.2962177,9.16488796 92.5609756,10.9134034 92.5609756,12.9879132 C92.5609756,15.1513305 93.3244963,16.9591176 94.8232591,18.5001821 C96.3503005,20.0116106 98.1035702,20.7821429 100.167904,20.7821429 C102.062566,20.7821429 103.759279,20.0708824 105.201485,18.6187255 C106.756805,17.1072969 107.520325,15.2402381 107.520325,13.017549 C107.520325,10.9134034 106.756805,9.16488796 105.201485,7.71273109 Z M101.581831,17.285112 C101.581831,18.1741877 100.903146,18.915084 100.026511,18.915084 C99.1781548,18.915084 98.4711912,18.2038235 98.4711912,17.285112 C98.4711912,17.285112 98.2732414,15.0031513 98.2732414,13.1657283 C98.2732414,11.3283053 98.4711912,9.04634454 98.4711912,9.04634454 C98.4711912,8.15726891 99.1498763,7.41637255 100.026511,7.41637255 C100.874867,7.41637255 101.581831,8.12763305 101.581831,9.04634454 C101.581831,9.04634454 101.779781,11.3283053 101.779781,13.2546359 C101.779781,15.1809664 101.581831,17.285112 101.581831,17.285112 Z" id="Shape"></path>
                    <path d="M48.1689643,7.71273109 C46.69848,6.34948179 45.030046,5.66785714 43.107105,5.66785714 C41.0710498,5.66785714 39.2895016,6.37911765 37.7907388,7.7720028 C36.2636974,9.16488796 35.5284553,10.9134034 35.5284553,12.9879132 C35.5284553,15.1513305 36.291976,16.9591176 37.7907388,18.5001821 C39.3177801,20.0116106 41.0710498,20.7821429 43.1353835,20.7821429 C45.030046,20.7821429 46.7267586,20.0708824 48.1689643,18.6187255 C49.7242842,17.1072969 50.4878049,15.2402381 50.4878049,13.017549 C50.4878049,10.9134034 49.6960057,9.16488796 48.1689643,7.71273109 Z M44.5210322,17.285112 C44.5210322,18.1741877 43.8423471,18.915084 42.9657123,18.915084 C42.0890774,18.915084 41.4103924,18.2038235 41.4103924,17.285112 C41.4103924,17.285112 41.2124426,15.0031513 41.2124426,13.1657283 C41.2124426,11.3283053 41.4103924,9.04634454 41.4103924,9.04634454 C41.4103924,8.15726891 42.0890774,7.41637255 42.9657123,7.41637255 C43.8423471,7.41637255 44.5210322,8.12763305 44.5210322,9.04634454 C44.5210322,9.04634454 44.718982,11.3283053 44.718982,13.2546359 C44.718982,15.1809664 44.5210322,17.285112 44.5210322,17.285112 Z" id="Shape"></path>
                </g>
            </g>
        </g>
    </g>
</svg>